Coordinates
nRows=5
nColumns=38

# SIMM Motion File Header:
name Coordinates
datacolumns 38
datarows 5
otherdata 1
range 0.94499999999999995000 0.94899999999999995000
endheader
time	pelvis_tx	pelvis_ty	pelvis_tz	pelvis_tilt	pelvis_list	pelvis_rotation	hip_flexion_r	hip_adduction_r	hip_rotation_r	knee_angle_r	ankle_angle_r	subtalar_angle_r	mtp_angle_r	hip_flexion_l	hip_adduction_l	hip_rotation_l	knee_angle_l	ankle_angle_l	subtalar_angle_l	mtp_angle_l	lumbar_extension	lumbar_bending	lumbar_rotation	arm_flex_r	arm_add_r	arm_rot_r	elbow_flex_r	pro_sup_r	wrist_flex_r	wrist_dev_r	arm_flex_l	arm_add_l	arm_rot_l	elbow_flex_l	pro_sup_l	wrist_flex_l	wrist_dev_l
      0.94499999999999995000	      0.82503813077270760000	      0.96529161662550211000	     -0.19753792437887013000	      4.92094281782800460000	      0.72012784797134566000	     -1.42358081556860890000	     35.88801131272676800000	     -0.89719842762161406000	     -1.84000108639443780000	    -91.18280131681558500000	      4.55418794915499170000	     -0.00000000000001200868	      0.00000000000005837854	     -7.81536567645917920000	      5.31331943700611210000	      0.08332789216612757100	    -31.98279022092920000000	     15.01114094492817800000	      0.00000000000016902138	     -0.00000000000025611034	    -12.52288723566083700000	     -1.99360709295628260000	     -5.45985432205793500000	    -21.81029355847701000000	    -28.24087589763991700000	     20.18621428982481400000	     59.67908138480761000000	    105.14733127714443000000	      0.00000000000000362285	      0.00000000000000450744	     -5.71667353948247920000	    -29.27317898542731100000	     -0.07382800039657609600	     95.59679413270556800000	    112.67066772505518000000	      0.00000000000000835335	      0.00000000000000297572
      0.94599999999999995000	      0.82538503386720175000	      0.96595325998058101000	     -0.19756368708814187000	      4.88810163959646720000	      0.66342619740453923000	     -1.40383092934350960000	     36.01570441173703300000	     -0.83118926660675585000	     -1.95216479256600710000	    -90.69822878069132300000	      4.66020271950639660000	     -0.00000000000001211243	      0.00000000000005891504	     -8.29113134148822620000	      5.22233374780105740000	      0.17341315370284976000	    -31.44476135881158600000	     14.63729549775434600000	      0.00000000000017121532	     -0.00000000000025894205	    -12.44101120759704300000	     -1.93377281766351070000	     -5.62602551829244830000	    -22.02105420751512800000	    -28.24734979496079700000	     20.15012502557936700000	     59.64370386998730600000	    105.09665089183270000000	      0.00000000000000366516	      0.00000000000000455066	     -5.70751256062725170000	    -29.22326709987250500000	     -0.11729360972383858000	     95.75878002992489300000	    112.70945881090927000000	      0.00000000000000845598	      0.00000000000000297357
      0.94699999999999995000	      0.82573326911990863000	      0.96661436037074633000	     -0.19758935966237740000	      4.85491982282587830000	      0.60702249035474010000	     -1.38395408302505470000	     36.14193654899553100000	     -0.76556141391987986000	     -2.06436817922365940000	    -90.21108380720777100000	      4.76531520591736160000	     -0.00000000000001221692	      0.00000000000005945430	     -8.76585020962188640000	      5.13162441196932220000	      0.26423398192997538000	    -30.90760854735672700000	     14.26294343153821500000	      0.00000000000017341168	     -0.00000000000026179874	    -12.35860339289992800000	     -1.87428524587820840000	     -5.79204513724746750000	    -22.23231982164982400000	    -28.25377320205671300000	     20.11324196543764500000	     59.60845619402304200000	    105.04621210276159000000	      0.00000000000000370750	      0.00000000000000459360	     -5.69855003619222520000	    -29.17343979821773600000	     -0.16012553343608762000	     95.92065820277291300000	    112.74815181690680000000	      0.00000000000000855890	      0.00000000000000297112
      0.94799999999999995000	      0.82608487431176802000	      0.96727343938608379000	     -0.19761525506122579000	      4.82074597630777910000	      0.55146652787543571000	     -1.36351204965005550000	     36.26383042860278700000	     -0.70111336333310148000	     -2.17668649323679420000	    -89.71639007857628200000	      4.86755705644959400000	     -0.00000000000001231891	      0.00000000000005999098	     -9.23711294072721500000	      5.04180724272867580000	      0.35820223556395597000	    -30.37375249047267500000	     13.88558760384618800000	      0.00000000000017560622	     -0.00000000000026462463	    -12.27472802536691900000	     -1.81570986494075970000	     -5.95767514866806190000	    -22.44526517346006900000	    -28.26003330841987800000	     20.07370773224306900000	     59.57388209227216400000	    104.99656243504877000000	      0.00000000000000374925	      0.00000000000000463543	     -5.68994915554236160000	    -29.12389409411585100000	     -0.20088694660255052000	     96.08224685508581300000	    112.78647973584813000000	      0.00000000000000866226	      0.00000000000000296742
      0.94899999999999995000	      0.82644209606888130000	      0.96792914944337483000	     -0.19764152183442896000	      4.78491874687716570000	      0.49732347301361912000	     -1.34212803784748420000	     36.37849387879132500000	     -0.63863164957981455000	     -2.28919635284239840000	    -89.20911509136493600000	      4.96501451385061900000	     -0.00000000000001241675	      0.00000000000006052338	     -9.70261544345200380000	      4.95347701780650680000	      0.45741619820934876000	    -29.84539102453995300000	     13.50322550702768100000	      0.00000000000017779771	     -0.00000000000026739919	    -12.18840673644075400000	     -1.75865480208306280000	     -6.12265581419794990000	    -22.66101008806289100000	    -28.26602124689512200000	     20.02975487729374700000	     59.54043061421026600000	    104.94822796959978000000	      0.00000000000000378999	      0.00000000000000467541	     -5.68195101453443470000	    -29.07481771926877200000	     -0.23819750885937815000	     96.24335297317352900000	    112.82419917636246000000	      0.00000000000000876634	      0.00000000000000296162
